opsz8_wght1000_wdth50.ufo
<glyph name="B" format="2">
	<unicode hex="0042"/>
	<advance width="1130"/>
	<outline>
		<contour>
			<point x="79.994140625" y="0" type="line"/>
			<point x="79.994140625" y="99.9990234375" type="line"/>
			<point x="295.99609375" y="133.9990234375" type="line"/>
			<point x="297.99609375" y="742.88671875" type="line"/>
			<point x="295.99609375" y="1354.0009765625" type="line"/>
			<point x="79.994140625" y="1388.0009765625" type="line"/>
			<point x="79.994140625" y="1500" type="line"/>
			<point x="610.822265625" y="1500" type="line" smooth="yes"/>
			<point x="796.740234375" y="1500"/>
			<point x="981.1889648438" y="1312"/>
			<point x="981.1889648438" y="1163" type="qcurve" smooth="yes"/>
			<point x="981.1889648438" y="1006"/>
			<point x="842.41796875" y="869"/>
			<point x="862" y="831" type="qcurve"/>
			<point x="862" y="821" type="line"/>
			<point x="854.6059570312" y="800"/>
			<point x="1099.0717773438" y="614"/>
			<point x="1099.0717773438" y="428" type="qcurve" smooth="yes"/>
			<point x="1099.0717773438" y="236"/>
			<point x="758.5356445312" y="0"/>
			<point x="575.0224609375" y="0" type="qcurve" smooth="yes"/>
		</contour>
		<contour>
			<point x="460" y="146.310546875" type="line"/>
			<point x="500.109375" y="114.978515625" type="line"/>
			<point x="614.322265625" y="114.978515625" type="line" smooth="yes"/>
			<point x="751.8231811523" y="114.978515625"/>
			<point x="907.0224609375" y="362.345703125"/>
			<point x="907.0224609375" y="432.845703125" type="qcurve" smooth="yes"/>
			<point x="907.0224609375" y="513.345703125"/>
			<point x="773.4223022461" y="733.939453125"/>
			<point x="673.869140625" y="733.939453125" type="qcurve" smooth="yes"/>
			<point x="458.77734375" y="733.939453125" type="line"/>
			<point x="456" y="718.2734375" type="line"/>
		</contour>
		<contour>
			<point x="459" y="872.58203125" type="line"/>
			<point x="472.8330078125" y="860.8046875" type="line"/>
			<point x="605.65234375" y="860.8046875" type="line" smooth="yes"/>
			<point x="723.047668457" y="860.8046875"/>
			<point x="808.1396484375" y="1041.16015625"/>
			<point x="808.1396484375" y="1123.66015625" type="qcurve" smooth="yes"/>
			<point x="808.1396484375" y="1220.16015625"/>
			<point x="718.602355957" y="1375.61328125"/>
			<point x="613.20703125" y="1375.61328125" type="qcurve" smooth="yes"/>
			<point x="485.109375" y="1375.61328125" type="line"/>
			<point x="461" y="1355.2255859375" type="line"/>
		</contour>
	</outline>
	<anchor name="bottom" x="614" y="0"/>
	<anchor name="top" x="614" y="1500"/>
</glyph>
<glyph name="D" format="2">
	<unicode hex="0044"/>
	<advance width="1615"/>
	<outline>
		<contour>
			<point x="79.994140625" y="0" type="line"/>
			<point x="79.994140625" y="98.9990234375" type="line"/>
			<point x="295.99609375" y="133.9990234375" type="line"/>
			<point x="297.99609375" y="754" type="line"/>
			<point x="295.99609375" y="1354.0009765625" type="line"/>
			<point x="79.994140625" y="1388.0009765625" type="line"/>
			<point x="79.994140625" y="1500" type="line"/>
			<point x="737.05078125" y="1500" type="line" smooth="yes"/>
			<point x="1081.2387695312" y="1500"/>
			<point x="1531.1391601562" y="1119"/>
			<point x="1531.1391601562" y="778" type="qcurve" smooth="yes"/>
			<point x="1531.1391601562" y="410"/>
			<point x="1069.875" y="0"/>
			<point x="697.0751953125" y="0" type="qcurve" smooth="yes"/>
		</contour>
		<contour>
			<point x="460.1909179688" y="78.61328125" type="line"/>
			<point x="496.6879882812" y="78.61328125"/>
			<point x="644.7094726562" y="78.61328125"/>
			<point x="729.0913085938" y="78.61328125" type="qcurve" smooth="yes"/>
			<point x="999.0145874023" y="78.61328125"/>
			<point x="1336.8305664062" y="421"/>
			<point x="1340.6079101562" y="752" type="qcurve" smooth="yes"/>
			<point x="1341.5522460938" y="1059.5"/>
			<point x="1008.0825195312" y="1393.78125"/>
			<point x="698.8168945312" y="1393.78125" type="qcurve" smooth="yes"/>
			<point x="639.1547851562" y="1393.78125"/>
			<point x="496.4653320312" y="1393.78125"/>
			<point x="460.1909179688" y="1393.78125" type="qcurve"/>
			<point x="460.1909179688" y="747" type="line"/>
		</contour>
	</outline>
	<anchor name="bottom" x="686" y="0"/>
	<anchor name="center" x="438" y="754"/>
	<anchor name="top" x="686" y="1500"/>
	<anchor name="liga" x="1590" y="0"/>
</glyph>
<glyph name="F" format="2">
	<unicode hex="0046"/>
	<advance width="1139"/>
	<outline>
		<contour>
			<point x="79.994140625" y="0" type="line"/>
			<point x="79.994140625" y="99.9990234375" type="line"/>
			<point x="295.99609375" y="132.9990234375" type="line"/>
			<point x="297.99609375" y="748" type="line"/>
			<point x="295.99609375" y="1354.0009765625" type="line"/>
			<point x="79.994140625" y="1388.0009765625" type="line"/>
			<point x="79.994140625" y="1500" type="line"/>
			<point x="1081.5821533203" y="1500" type="line"/>
			<point x="1081.5821533203" y="1145.2451171875" type="line"/>
			<point x="971.5776367188" y="1145.2451171875" type="line"/>
			<point x="946.5776367188" y="1364.513671875" type="line"/>
			<point x="490.1909179688" y="1364.513671875" type="line"/>
			<point x="465.1909179688" y="1340.513671875" type="line"/>
			<point x="469.1909179688" y="760" type="line"/>
			<point x="471.1909179688" y="136.9990234375" type="line"/>
			<point x="749.423828125" y="100.9990234375" type="line"/>
			<point x="749.423828125" y="0" type="line"/>
		</contour>
		<contour>
			<point x="438.6430664062" y="709.92578125" type="line"/>
			<point x="438.6430664062" y="815.919921875" type="line"/>
			<point x="811.7646484375" y="825.919921875" type="line"/>
			<point x="828.7646484375" y="991.0684814453" type="line"/>
			<point x="926.2352294922" y="991.0684814453" type="line"/>
			<point x="926.2352294922" y="495.4743652344" type="line"/>
			<point x="828.7646484375" y="495.4743652344" type="line"/>
			<point x="811.7646484375" y="699.92578125" type="line"/>
		</contour>
	</outline>
	<anchor name="bottom" x="578" y="0"/>
	<anchor name="top" x="622" y="1500"/>
</glyph>
<glyph name="G" format="2">
	<unicode hex="0047"/>
	<advance width="1509"/>
	<outline>
		<contour>
			<point x="81.001953125" y="713" type="qcurve" smooth="yes"/>
			<point x="81.001953125" y="1119.2780761719"/>
			<point x="522.0073242188" y="1505.5366210938"/>
			<point x="810.4208984375" y="1505.5366210938" type="qcurve" smooth="yes"/>
			<point x="993.9167480469" y="1505.5366210938"/>
			<point x="1116.9733886719" y="1438.7658691406"/>
			<point x="1188.1921386719" y="1381" type="qcurve"/>
			<point x="1219.7468261719" y="1500" type="line"/>
			<point x="1318.484375" y="1500" type="line"/>
			<point x="1318.484375" y="1040.8500976562" type="line"/>
			<point x="1171.871887207" y="1040.8500976562" type="line"/>
			<point x="1142.1210327148" y="1214.853515625" type="line" smooth="yes"/>
			<point x="1132.1210327148" y="1277.853515625"/>
			<point x="1038.0702514648" y="1366.7124023438"/>
			<point x="844.9458007812" y="1366.7124023438" type="qcurve" smooth="yes"/>
			<point x="605.2337036133" y="1366.7124023438"/>
			<point x="273.2607421875" y="1035"/>
			<point x="273.2607421875" y="738" type="qcurve" smooth="yes"/>
			<point x="273.2607421875" y="523.5"/>
			<point x="653.2662353516" y="140.4008789062"/>
			<point x="892.478515625" y="140.4008789062" type="qcurve" smooth="yes"/>
			<point x="1016.2485351562" y="140.4008789062"/>
			<point x="1216.7666015625" y="153.3483886719"/>
			<point x="1301.3779296875" y="162.427734375" type="qcurve"/>
			<point x="1301.3779296875" y="528.0004882812" type="line"/>
			<point x="1145.5299072266" y="558.0004882812" type="line"/>
			<point x="1145.5299072266" y="676.9995117188" type="line"/>
			<point x="1541.5535888672" y="676.9995117188" type="line"/>
			<point x="1541.5535888672" y="558.0004882812" type="line"/>
			<point x="1426.0908203125" y="528.0004882812" type="line"/>
			<point x="1426.0908203125" y="152" type="line"/>
			<point x="1353.8793945312" y="85.2292480469"/>
			<point x="1109.951171875" y="-7.5366210938"/>
			<point x="970.4794921875" y="-7.5366210938" type="qcurve" smooth="yes"/>
			<point x="571.166015625" y="-7.5366210938"/>
			<point x="81.001953125" y="349.4829101562"/>
		</contour>
	</outline>
	<anchor name="bottom" x="872" y="0"/>
	<anchor name="top" x="836" y="1500"/>
</glyph>
<glyph name="H" format="2">
	<unicode hex="0048"/>
	<advance width="1735"/>
	<outline>
		<contour>
			<point x="79.994140625" y="0" type="line"/>
			<point x="79.994140625" y="99.9990234375" type="line"/>
			<point x="288.99609375" y="134.9990234375" type="line"/>
			<point x="290.99609375" y="754" type="line"/>
			<point x="288.99609375" y="1354.0009765625" type="line"/>
			<point x="79.994140625" y="1388.0009765625" type="line"/>
			<point x="79.994140625" y="1500" type="line"/>
			<point x="609.1928710938" y="1500" type="line"/>
			<point x="609.1928710938" y="1388.0009765625" type="line"/>
			<point x="467.1909179688" y="1354.0009765625" type="line"/>
			<point x="465.1909179688" y="754" type="line"/>
			<point x="467.1909179688" y="134.9990234375" type="line"/>
			<point x="609.1928710938" y="99.9990234375" type="line"/>
			<point x="609.1928710938" y="0" type="line"/>
		</contour>
		<contour>
			<point x="207.1909179688" y="712.6015625" type="line"/>
			<point x="207.1909179688" y="844.609375" type="line"/>
			<point x="876.1828613281" y="836.609375" type="line"/>
			<point x="1559.1931152344" y="844.609375" type="line"/>
			<point x="1559.1931152344" y="712.6015625" type="line"/>
			<point x="876.1828613281" y="712.6015625" type="line"/>
		</contour>
		<contour>
			<point x="1126.1911621094" y="0" type="line"/>
			<point x="1126.1911621094" y="99.9990234375" type="line"/>
			<point x="1267.1931152344" y="134.9990234375" type="line"/>
			<point x="1269.1931152344" y="754" type="line"/>
			<point x="1267.1931152344" y="1354.0009765625" type="line"/>
			<point x="1126.1911621094" y="1388.0009765625" type="line"/>
			<point x="1126.1911621094" y="1500" type="line"/>
			<point x="1655.3898925781" y="1500" type="line"/>
			<point x="1655.3898925781" y="1388.0009765625" type="line"/>
			<point x="1445.3879394531" y="1354.0009765625" type="line"/>
			<point x="1443.3879394531" y="754" type="line"/>
			<point x="1445.3879394531" y="134.9990234375" type="line"/>
			<point x="1655.3898925781" y="99.9990234375" type="line"/>
			<point x="1655.3898925781" y="0" type="line"/>
		</contour>
	</outline>
	<anchor name="bottom" x="870" y="0"/>
	<anchor name="center" x="870" y="1079"/>
	<anchor name="top" x="870" y="1500"/>
	<anchor name="tonos" x="0" y="1500"/>
	<anchor name="cy_descender" x="1658" y="100"/>
</glyph>
<glyph name="I" format="2">
	<unicode hex="0049"/>
	<advance width="801"/>
	<outline>
		<contour>
			<point x="82.5466308594" y="0" type="line"/>
			<point x="82.5466308594" y="99.9990234375" type="line"/>
			<point x="311.1640625" y="134.9990234375" type="line"/>
			<point x="313.1640625" y="754" type="line"/>
			<point x="311.1640625" y="1354.0009765625" type="line"/>
			<point x="82.5466308594" y="1388.0009765625" type="line"/>
			<point x="82.5466308594" y="1500" type="line"/>
			<point x="717.9763183594" y="1500" type="line"/>
			<point x="717.9763183594" y="1388.0009765625" type="line"/>
			<point x="489.3588867188" y="1354.0009765625" type="line"/>
			<point x="487.3588867188" y="754" type="line"/>
			<point x="489.3588867188" y="133.9990234375" type="line"/>
			<point x="717.9763183594" y="99.9990234375" type="line"/>
			<point x="717.9763183594" y="0" type="line"/>
		</contour>
	</outline>
	<anchor name="bottom" x="390" y="0"/>
	<anchor name="ogonek" x="526" y="0"/>
	<anchor name="top" x="390" y="1500"/>
	<anchor name="tonos" x="0" y="1500"/>
	<anchor name="yu_dash" x="380" y="755"/>
	<anchor name="_Yeru_I" x="82" y="0"/>
	<anchor name="liga" x="780" y="0"/>
</glyph>
<glyph name="J" format="2">
	<unicode hex="004A"/>
	<advance width="778"/>
	<outline>
		<contour>
			<point x="37.6218261719" y="-191.9956054688" type="qcurve"/>
			<point x="37.6218261719" y="-69.8364257812" type="line"/>
			<point x="60.5852050781" y="-71.2164306641"/>
			<point x="136.5546875" y="-74.3564453125"/>
			<point x="180.4692382812" y="-75.4964599609" type="qcurve" smooth="yes"/>
			<point x="241.3044433594" y="-77.7764892578"/>
			<point x="308.1640625" y="-9.4964599609"/>
			<point x="309.1640625" y="112.5035400391" type="qcurve" smooth="yes"/>
			<point x="315.1640625" y="674" type="line"/>
			<point x="312.1640625" y="1354.0009765625" type="line"/>
			<point x="90.4698486328" y="1388.0009765625" type="line"/>
			<point x="90.4698486328" y="1500" type="line"/>
			<point x="678.5256347656" y="1500" type="line"/>
			<point x="670" y="1384" type="line"/>
			<point x="480" y="1350" type="line"/>
			<point x="493.8315429688" y="674" type="line"/>
			<point x="486.8315429688" y="260.0041503906" type="line" smooth="yes"/>
			<point x="484.5415649414" y="35.244140625"/>
			<point x="297.1887207031" y="-207.9956054688"/>
			<point x="156.9641113281" y="-207.9956054688" type="qcurve" smooth="yes"/>
			<point x="141.5883789062" y="-207.9956054688"/>
			<point x="81.5913085938" y="-199.9956054688"/>
		</contour>
	</outline>
	<anchor name="bottom" x="376" y="-208"/>
	<anchor name="top" x="376" y="1500"/>
	<anchor name="_liga" x="0" y="0"/>
</glyph>
<glyph name="K" format="2">
	<unicode hex="004B"/>
	<advance width="1344"/>
	<outline>
		<contour>
			<point x="79.994140625" y="0" type="line"/>
			<point x="79.994140625" y="99.9990234375" type="line"/>
			<point x="295.99609375" y="134.9990234375" type="line"/>
			<point x="297.99609375" y="754" type="line"/>
			<point x="295.99609375" y="1354.0009765625" type="line"/>
			<point x="79.994140625" y="1388.0009765625" type="line"/>
			<point x="79.994140625" y="1500" type="line"/>
			<point x="651.5773925781" y="1500" type="line"/>
			<point x="651.5773925781" y="1388.0009765625" type="line"/>
			<point x="464.1909179688" y="1354.0009765625" type="line"/>
			<point x="462.1909179688" y="754" type="line"/>
			<point x="464.1909179688" y="134.9990234375" type="line"/>
			<point x="616.1928710938" y="99.9990234375" type="line"/>
			<point x="616.1928710938" y="0" type="line"/>
		</contour>
		<contour>
			<point x="362.5321044922" y="493.2677001953" type="line"/>
			<point x="365.5321044922" y="606.7607421875" type="line"/>
			<point x="1056.6602172852" y="1370.0009765625" type="line"/>
			<point x="824.8126831055" y="1389.0009765625" type="line"/>
			<point x="824.8126831055" y="1500" type="line"/>
			<point x="1439.5559692383" y="1500" type="line"/>
			<point x="1439.5559692383" y="1389.0009765625" type="line"/>
			<point x="1203.4004516602" y="1360.0009765625" type="line"/>
			<point x="728.5042724609" y="877.5978393555" type="line"/>
			<point x="675.8474121094" y="821.8154907227" type="line"/>
		</contour>
		<contour>
			<point x="599.8590087891" y="747.8157958984" type="line"/>
			<point x="674.5942993164" y="940.5476074219" type="line"/>
			<point x="1292.8346557617" y="133.9990234375" type="line"/>
			<point x="1463.297668457" y="99.9990234375" type="line"/>
			<point x="1463.297668457" y="0" type="line"/>
			<point x="957.9450073242" y="0" type="line"/>
			<point x="957.9450073242" y="99.9990234375" type="line"/>
			<point x="1093.4850463867" y="133.9990234375" type="line"/>
		</contour>
	</outline>
	<anchor name="bottom" x="812" y="0"/>
	<anchor name="top" x="770" y="1500"/>
</glyph>
<glyph name="L" format="2">
	<unicode hex="004C"/>
	<advance width="1268"/>
	<outline>
		<contour>
			<point x="93.994140625" y="0" type="line"/>
			<point x="93.994140625" y="99.9990234375" type="line"/>
			<point x="295.99609375" y="137.9990234375" type="line"/>
			<point x="297.99609375" y="754" type="line"/>
			<point x="295.99609375" y="1354.0009765625" type="line"/>
			<point x="79.994140625" y="1388.0009765625" type="line"/>
			<point x="79.994140625" y="1500" type="line"/>
			<point x="689.8084716797" y="1500" type="line"/>
			<point x="689.8084716797" y="1388.0009765625" type="line"/>
			<point x="468.1909179688" y="1354.0009765625" type="line"/>
			<point x="464.1909179688" y="754" type="line"/>
			<point x="469.1909179688" y="126.26171875" type="line"/>
			<point x="489.1909179688" y="103.26171875" type="line"/>
			<point x="1084.8353271484" y="103.26171875" type="line"/>
			<point x="1138.8353271484" y="421.6502685547" type="line"/>
			<point x="1262.7194824219" y="421.6502685547" type="line"/>
			<point x="1238.7194824219" y="0" type="line"/>
		</contour>
	</outline>
	<anchor name="bottom" x="705" y="0"/>
	<anchor name="centerright" x="928" y="750"/>
	<anchor name="top" x="632" y="1500"/>
	<anchor name="topright" x="784" y="1001"/>
	<anchor name="center" x="378" y="750"/>
	<anchor name="liga" x="1264" y="0"/>
</glyph>
<glyph name="M" format="2">
	<unicode hex="004D"/>
	<advance width="2157"/>
	<outline>
		<contour>
			<point x="79.994140625" y="0" type="line"/>
			<point x="79.994140625" y="99.9990234375" type="line"/>
			<point x="279.99609375" y="134.9990234375" type="line"/>
			<point x="280.99609375" y="754" type="line"/>
			<point x="279.99609375" y="1355.0009765625" type="line"/>
			<point x="79.994140625" y="1389.0009765625" type="line"/>
			<point x="79.994140625" y="1500" type="line"/>
			<point x="535.9555664062" y="1505.3598022461" type="line"/>
			<point x="837.3865966797" y="842.7424926758" type="line"/>
			<point x="1004" y="370" type="line"/>
			<point x="1046" y="256" type="line"/>
			<point x="1056" y="256" type="line"/>
			<point x="1098" y="370" type="line"/>
			<point x="1342.9202880859" y="840.6422119141" type="line"/>
			<point x="1606.1643066406" y="1500" type="line"/>
			<point x="2076.5225830078" y="1500" type="line"/>
			<point x="2076.5225830078" y="1389.0009765625" type="line"/>
			<point x="1863.5206298828" y="1355.0009765625" type="line"/>
			<point x="1858.7549438477" y="754" type="line"/>
			<point x="1863.5206298828" y="134.9990234375" type="line"/>
			<point x="2076.5225830078" y="99.9990234375" type="line"/>
			<point x="2076.5225830078" y="0" type="line"/>
			<point x="1522.9593505859" y="0" type="line"/>
			<point x="1525.2564086914" y="99.9990234375" type="line"/>
			<point x="1673.8077392578" y="134.9990234375" type="line"/>
			<point x="1676.8077392578" y="752" type="line"/>
			<point x="1646" y="1210" type="line"/>
			<point x="1650" y="1329" type="line"/>
			<point x="1640" y="1331" type="line"/>
			<point x="1601" y="1224" type="line"/>
			<point x="1415.2633666992" y="784.2176513672" type="line"/>
			<point x="1129.0271606445" y="0" type="line"/>
			<point x="986.6937866211" y="0" type="line"/>
			<point x="672.723449707" y="667.37109375" type="line"/>
			<point x="458" y="1229" type="line"/>
			<point x="418" y="1336" type="line"/>
			<point x="408" y="1334" type="line"/>
			<point x="413" y="1215" type="line"/>
			<point x="384.84765625" y="754" type="line"/>
			<point x="395.84765625" y="134.9990234375" type="line"/>
			<point x="554.4650878906" y="99.9990234375" type="line"/>
			<point x="554.4650878906" y="0" type="line"/>
		</contour>
	</outline>
	<anchor name="bottom" x="1025" y="0"/>
	<anchor name="top" x="1058" y="1500"/>
</glyph>
<glyph name="N" format="2">
	<unicode hex="004E"/>
	<advance width="1489"/>
	<outline>
		<contour>
			<point x="79.994140625" y="0" type="line"/>
			<point x="79.994140625" y="99.9990234375" type="line"/>
			<point x="274.99609375" y="133.9990234375" type="line"/>
			<point x="282.99609375" y="754" type="line"/>
			<point x="279.99609375" y="1355.0009765625" type="line"/>
			<point x="79.994140625" y="1389.0009765625" type="line"/>
			<point x="79.994140625" y="1500" type="line"/>
			<point x="436.6383056641" y="1500" type="line"/>
			<point x="855.5852661133" y="821.1345214844" type="line"/>
			<point x="1148" y="412" type="line"/>
			<point x="1206" y="310" type="line"/>
			<point x="1215" y="313" type="line"/>
			<point x="1211" y="434" type="line"/>
			<point x="1119.3931274414" y="754.455078125" type="line"/>
			<point x="1117.9244995117" y="1355.0009765625" type="line"/>
			<point x="903.6915893555" y="1389.0009765625" type="line"/>
			<point x="903.6915893555" y="1500" type="line"/>
			<point x="1441.5670776367" y="1500" type="line"/>
			<point x="1441.5670776367" y="1389.0009765625" type="line"/>
			<point x="1238.5651245117" y="1355.0009765625" type="line"/>
			<point x="1236.5651245117" y="730.455078125" type="line"/>
			<point x="1233.5651245117" y="-4" type="line"/>
			<point x="1146.6737670898" y="-4" type="line"/>
			<point x="780.1873168945" y="577.8164672852" type="line"/>
			<point x="472" y="1219" type="line"/>
			<point x="414" y="1321" type="line"/>
			<point x="405" y="1318" type="line"/>
			<point x="410" y="1198" type="line"/>
			<point x="390.3125" y="781.908203125" type="line"/>
			<point x="394.3125" y="133.9990234375" type="line"/>
			<point x="599.9299316406" y="99.9990234375" type="line"/>
			<point x="599.9299316406" y="0" type="line"/>
		</contour>
	</outline>
	<anchor name="bottom" x="800" y="0"/>
	<anchor name="top" x="800" y="1500"/>
	<anchor name="engtail" x="1324" y="0"/>
	<anchor name="liga" x="1600" y="0"/>
</glyph>
<glyph name="O" format="2">
	<unicode hex="004F"/>
	<advance width="1652"/>
	<outline>
		<contour>
			<point x="81.001953125" y="747" type="qcurve" smooth="yes"/>
			<point x="81.001953125" y="1072.7658691406"/>
			<point x="488.8842773438" y="1519.5366210938"/>
			<point x="829.0595703125" y="1519.5366210938" type="qcurve" smooth="yes"/>
			<point x="1167.4018554688" y="1519.5366210938"/>
			<point x="1571.3955078125" y="1101.7658691406"/>
			<point x="1571.3955078125" y="762" type="qcurve" smooth="yes"/>
			<point x="1571.3955078125" y="438.2341308594"/>
			<point x="1170.7280273438" y="-8.5366210938"/>
			<point x="830.1708984375" y="-8.5366210938" type="qcurve" smooth="yes"/>
			<point x="485.0537109375" y="-8.5366210938"/>
			<point x="81.001953125" y="412.2341308594"/>
		</contour>
		<contour>
			<point x="266.169921875" y="755" type="qcurve" smooth="yes"/>
			<point x="266.169921875" y="489"/>
			<point x="567.563659668" y="136.7524414062"/>
			<point x="828.1708984375" y="136.7524414062" type="qcurve" smooth="yes"/>
			<point x="1111.1730957031" y="136.7524414062"/>
			<point x="1388.2275390625" y="466"/>
			<point x="1388.2275390625" y="759" type="qcurve" smooth="yes"/>
			<point x="1388.2275390625" y="1032"/>
			<point x="1078.69921875" y="1370.9096679688"/>
			<point x="826.1708984375" y="1370.9096679688" type="qcurve" smooth="yes"/>
			<point x="554.1687011719" y="1370.9096679688"/>
			<point x="266.169921875" y="1038"/>
		</contour>
	</outline>
	<anchor name="bottom" x="832" y="0"/>
	<anchor name="center" x="832" y="750"/>
	<anchor name="ogonek" x="1064" y="0"/>
	<anchor name="top" x="832" y="1500"/>
	<anchor name="topright" x="1028" y="1500"/>
	<anchor name="tonos" x="140" y="1500"/>
	<anchor name="_yu_dash" x="169" y="755"/>
</glyph>
<glyph name="P" format="2">
	<unicode hex="0050"/>
	<advance width="1128"/>
	<outline>
		<contour>
			<point x="79.994140625" y="0" type="line"/>
			<point x="79.994140625" y="98.9990234375" type="line"/>
			<point x="295.99609375" y="132.9990234375" type="line"/>
			<point x="299.884765625" y="754" type="line"/>
			<point x="295.99609375" y="1354.0009765625" type="line"/>
			<point x="79.994140625" y="1388.0009765625" type="line"/>
			<point x="79.994140625" y="1500" type="line"/>
			<point x="695.5903320312" y="1500" type="line" smooth="yes"/>
			<point x="873.814453125" y="1500"/>
			<point x="1085.951171875" y="1264"/>
			<point x="1085.951171875" y="1048" type="qcurve" smooth="yes"/>
			<point x="1085.951171875" y="798"/>
			<point x="829.0048828125" y="575.22265625"/>
			<point x="693.4916992188" y="575.22265625" type="qcurve" smooth="yes"/>
			<point x="574.1953125" y="575.22265625"/>
			<point x="441.1909179688" y="600.22265625"/>
			<point x="386.3041992188" y="614.22265625" type="qcurve"/>
			<point x="392.3041992188" y="717.552734375" type="line"/>
			<point x="460.9663085938" y="707.552734375"/>
			<point x="528.05078125" y="698.552734375"/>
			<point x="633.9873046875" y="698.552734375" type="qcurve" smooth="yes"/>
			<point x="752.8828125" y="698.552734375"/>
			<point x="926.3745117188" y="918.5"/>
			<point x="926.3745117188" y="1041" type="qcurve" smooth="yes"/>
			<point x="926.3745117188" y="1184"/>
			<point x="791.788269043" y="1371.5"/>
			<point x="645.392578125" y="1371.5" type="qcurve" smooth="yes"/>
			<point x="480.1909179688" y="1371.5" type="line"/>
			<point x="463.1909179688" y="1351.5" type="line"/>
			<point x="461.1909179688" y="764" type="line"/>
			<point x="463.1909179688" y="136.9990234375" type="line"/>
			<point x="699.423828125" y="99.9990234375" type="line"/>
			<point x="699.423828125" y="0" type="line"/>
		</contour>
	</outline>
	<anchor name="bottom" x="634" y="0"/>
	<anchor name="top" x="634" y="1500"/>
</glyph>
<glyph name="Q" format="2">
	<unicode hex="0051"/>
	<advance width="1649"/>
	<outline>
		<contour>
			<point x="81.001953125" y="751.7216796875" type="qcurve" smooth="yes"/>
			<point x="81.001953125" y="1070.3796386719"/>
			<point x="523.28125" y="1522.0244140625"/>
			<point x="822.44921875" y="1522.0244140625" type="qcurve" smooth="yes"/>
			<point x="1143.5205078125" y="1522.0244140625"/>
			<point x="1567.6181640625" y="1101.2683105469"/>
			<point x="1567.6181640625" y="762" type="qcurve" smooth="yes"/>
			<point x="1567.6181640625" y="438.7316894531"/>
			<point x="1103.4169921875" y="1.7121582031"/>
			<point x="817.3583984375" y="1.7121582031" type="qcurve" smooth="yes"/>
			<point x="479.1196289062" y="1.7121582031"/>
			<point x="81.001953125" y="442.9504394531"/>
		</contour>
		<contour>
			<point x="266.169921875" y="750.2783203125" type="qcurve" smooth="yes"/>
			<point x="266.169921875" y="473.7783203125"/>
			<point x="551.4868774414" y="125.8625488281"/>
			<point x="821.8310546875" y="125.8625488281" type="qcurve" smooth="yes"/>
			<point x="1100.9384765625" y="125.8625488281"/>
			<point x="1384.4501953125" y="464.5"/>
			<point x="1384.4501953125" y="759" type="qcurve" smooth="yes"/>
			<point x="1384.4501953125" y="1045.5"/>
			<point x="1088.4361572266" y="1373.3974609375"/>
			<point x="826.1708984375" y="1373.3974609375" type="qcurve" smooth="yes"/>
			<point x="554.1687011719" y="1373.3974609375"/>
			<point x="266.169921875" y="1045.2783203125"/>
		</contour>
		<contour>
			<point x="573" y="-39" type="qcurve"/>
			<point x="1193.59375" y="-248.111328125" type="line"/>
			<point x="1269.4248046875" y="-264.859375"/>
			<point x="1357.9375" y="-205.5610351562"/>
			<point x="1409.587890625" y="-101.6450195312" type="qcurve"/>
			<point x="1473.595703125" y="-137.8598632812" type="line"/>
			<point x="1418.4326171875" y="-321.5815429688"/>
			<point x="1297.6489257812" y="-430.876953125"/>
			<point x="1158.2739257812" y="-422.3779296875" type="qcurve"/>
			<point x="585.7456054688" y="-205.2294921875" type="line"/>
			<point x="498.7241210938" y="-189.2294921875"/>
			<point x="408.91796875" y="-213.1186523438"/>
			<point x="344.990234375" y="-251.97265625" type="qcurve"/>
			<point x="300.658203125" y="-257.162109375" type="line"/>
			<point x="299" y="-132"/>
			<point x="476" y="-39"/>
		</contour>
		<contour>
			<point x="518" y="-96" type="line"/>
			<point x="676.3559570312" y="162.5625" type="line"/>
			<point x="710.8754882812" y="65.6328125" type="line"/>
			<point x="634" y="-133" type="line"/>
		</contour>
	</outline>
	<anchor name="bottom" x="832" y="0"/>
	<anchor name="top" x="823" y="1502"/>
</glyph>
<glyph name="R" format="2">
	<unicode hex="0052"/>
	<advance width="1300"/>
	<outline>
		<contour>
			<point x="80.7109375" y="0" type="line"/>
			<point x="80.7109375" y="98.9990234375" type="line"/>
			<point x="296.712890625" y="132.9990234375" type="line"/>
			<point x="298.712890625" y="690.181640625" type="line"/>
			<point x="296.712890625" y="1354.0009765625" type="line"/>
			<point x="80.7109375" y="1388.0009765625" type="line"/>
			<point x="80.7109375" y="1500" type="line"/>
			<point x="694.5717773438" y="1500" type="line" smooth="yes"/>
			<point x="850.9423828125" y="1500"/>
			<point x="1099.4272460938" y="1314.771484375"/>
			<point x="1099.4272460938" y="1142.76953125" type="qcurve" smooth="yes"/>
			<point x="1099.4272460938" y="984.048828125"/>
			<point x="833.361328125" y="750.203125"/>
			<point x="715.2983398438" y="750.203125" type="qcurve" smooth="yes"/>
			<point x="621.2939453125" y="750.203125"/>
			<point x="403.3745117188" y="754.203125"/>
			<point x="335.7817382812" y="760.203125" type="qcurve"/>
			<point x="333.7817382812" y="848.37890625" type="line"/>
			<point x="628.6713867188" y="848.37890625" type="line" smooth="yes"/>
			<point x="791.7777099609" y="848.37890625"/>
			<point x="893.0415039062" y="1046.734375"/>
			<point x="893.0415039062" y="1111.234375" type="qcurve" smooth="yes"/>
			<point x="893.0415039062" y="1206.734375"/>
			<point x="814.8405151367" y="1362.302734375"/>
			<point x="667.4448242188" y="1362.302734375" type="qcurve" smooth="yes"/>
			<point x="476.9077148438" y="1362.302734375" type="line"/>
			<point x="462.9077148438" y="1346.302734375" type="line"/>
			<point x="460.9077148438" y="692" type="line"/>
			<point x="463.9077148438" y="132.9990234375" type="line"/>
			<point x="636.6020507812" y="99.9990234375" type="line"/>
			<point x="636.6020507812" y="0" type="line"/>
		</contour>
		<contour>
			<point x="586.2333984375" y="778.0053710938" type="line"/>
			<point x="701.4501953125" y="885.869140625" type="line"/>
			<point x="1076.4078369141" y="335.9990234375" type="line" smooth="yes"/>
			<point x="1165.3135986328" y="220.1594238281"/>
			<point x="1282.0002441406" y="86.3062744141"/>
			<point x="1340.0236816406" y="103.9990234375" type="qcurve"/>
			<point x="1340.0236816406" y="0" type="line"/>
			<point x="1122.2543945312" y="0" type="line"/>
			<point x="1017.5883789062" y="111" type="line"/>
		</contour>
	</outline>
	<anchor name="bottom" x="803" y="0"/>
	<anchor name="top" x="630" y="1500"/>
</glyph>
<glyph name="T" format="2">
	<unicode hex="0054"/>
	<advance width="1325"/>
	<outline>
		<contour>
			<point x="64.5350341797" y="1060.9276123047" type="line"/>
			<point x="64.5350341797" y="1500" type="line"/>
			<point x="1266.3880615234" y="1500" type="line"/>
			<point x="1266.3880615234" y="1060.9276123047" type="line"/>
			<point x="1156.3835449219" y="1060.9276123047" type="line"/>
			<point x="1120.3813476562" y="1390.921875" type="line"/>
			<point x="770.0559082031" y="1390.921875" type="line"/>
			<point x="752.0559082031" y="1374.921875" type="line"/>
			<point x="750.0559082031" y="778.349609375" type="line"/>
			<point x="754.0559082031" y="132.9990234375" type="line"/>
			<point x="992.2117919922" y="98.9990234375" type="line"/>
			<point x="992.2117919922" y="0" type="line"/>
			<point x="336.7821044922" y="0" type="line"/>
			<point x="336.7821044922" y="98.9990234375" type="line"/>
			<point x="575.8610839844" y="132.9990234375" type="line"/>
			<point x="580.8610839844" y="778.349609375" type="line"/>
			<point x="578.8610839844" y="1374.921875" type="line"/>
			<point x="568.8610839844" y="1390.921875" type="line"/>
			<point x="209.5417480469" y="1390.921875" type="line"/>
			<point x="173.5395507812" y="1060.9276123047" type="line"/>
		</contour>
	</outline>
	<anchor name="bottom" x="644" y="0"/>
	<anchor name="center" x="644" y="750"/>
	<anchor name="top" x="644" y="1500"/>
	<anchor name="cy_descender" x="951" y="100"/>
</glyph>
<glyph name="U" format="2">
	<unicode hex="0055"/>
	<advance width="1532"/>
	<outline>
		<contour>
			<point x="63.1057128906" y="1389.0009765625" type="line"/>
			<point x="63.1057128906" y="1500" type="line"/>
			<point x="609.7640380859" y="1500" type="line"/>
			<point x="609.7640380859" y="1389.0009765625" type="line"/>
			<point x="428.2236328125" y="1355.0009765625" type="line"/>
			<point x="426.2236328125" y="794" type="line"/>
			<point x="428.2236328125" y="405.201171875" type="line" smooth="yes"/>
			<point x="428.4396972656" y="266.181640625"/>
			<point x="647.2145996094" y="137.0288085938"/>
			<point x="818.3735351562" y="137.0288085938" type="qcurve" smooth="yes"/>
			<point x="976.0059814453" y="137.0288085938"/>
			<point x="1171.3212890625" y="266.181640625"/>
			<point x="1175.640625" y="419.201171875" type="qcurve" smooth="yes"/>
			<point x="1175.640625" y="794" type="line"/>
			<point x="1170.4736328125" y="1355.0009765625" type="line"/>
			<point x="984.8562011719" y="1389.0009765625" type="line"/>
			<point x="984.8562011719" y="1500" type="line"/>
			<point x="1499.0869140625" y="1500" type="line"/>
			<point x="1499.0869140625" y="1389.0009765625" type="line"/>
			<point x="1310.0849609375" y="1355.0009765625" type="line"/>
			<point x="1302.0849609375" y="794" type="line"/>
			<point x="1302.0546875" y="453" type="line" smooth="yes"/>
			<point x="1301.96875" y="212.7316894531"/>
			<point x="1109.814453125" y="-9.5366210938"/>
			<point x="802.9497070312" y="-9.5366210938" type="qcurve" smooth="yes"/>
			<point x="495.001953125" y="-9.5366210938"/>
			<point x="264.4921875" y="202.4829101562"/>
			<point x="264.4921875" y="451" type="qcurve" smooth="yes"/>
			<point x="263.6831054688" y="794" type="line"/>
			<point x="264.4921875" y="1355.0009765625" type="line"/>
		</contour>
	</outline>
	<anchor name="bottom" x="832" y="0"/>
	<anchor name="ogonek" x="1042" y="0"/>
	<anchor name="top" x="832" y="1500"/>
	<anchor name="topright" x="1590" y="1500"/>
</glyph>
<glyph name="V" format="2">
	<unicode hex="0056"/>
	<advance width="1423"/>
	<outline>
		<contour>
			<point x="-14.8831787109" y="1390.0009765625" type="line"/>
			<point x="-14.8831787109" y="1500" type="line"/>
			<point x="516.2033691406" y="1500" type="line"/>
			<point x="516.2033691406" y="1390.0009765625" type="line"/>
			<point x="341.6633300781" y="1362.0009765625" type="line"/>
			<point x="589.2674560547" y="715.5412597656" type="line"/>
			<point x="704.8642578125" y="402.4779663086" type="line"/>
			<point x="734.2014770508" y="249.1248168945" type="line"/>
			<point x="746.2014770508" y="249.1248168945" type="line"/>
			<point x="783.2591552734" y="402.4779663086" type="line"/>
			<point x="964.1677856445" y="863.2710571289" type="line"/>
			<point x="1162.442565918" y="1356.0009765625" type="line"/>
			<point x="966.1331176758" y="1390.0009765625" type="line"/>
			<point x="966.1331176758" y="1500" type="line"/>
			<point x="1465.6470336914" y="1500" type="line"/>
			<point x="1465.6470336914" y="1390.0009765625" type="line"/>
			<point x="1278.4915161133" y="1360.0009765625" type="line"/>
			<point x="1057.5841064453" y="809.7099609375" type="line"/>
			<point x="775.2426147461" y="14.9267578125" type="line"/>
			<point x="653.5131835938" y="14.9267578125" type="line"/>
			<point x="380.4663085938" y="710.5272216797" type="line"/>
			<point x="139.6568603516" y="1360.0009765625" type="line"/>
		</contour>
	</outline>
	<anchor name="bottom" x="723" y="0"/>
	<anchor name="top" x="733" y="1500"/>
</glyph>
<glyph name="W" format="2">
	<unicode hex="0057"/>
	<advance width="1957"/>
	<outline>
		<contour>
			<point x="619.016784668" y="14.9267578125" type="line"/>
			<point x="377.8554077148" y="705.4120483398" type="line"/>
			<point x="141.6568603516" y="1359.0009765625" type="line"/>
			<point x="-12.8831787109" y="1390.0009765625" type="line"/>
			<point x="-12.8831787109" y="1500" type="line"/>
			<point x="458.7594604492" y="1500" type="line"/>
			<point x="458.7594604492" y="1390.0009765625" type="line"/>
			<point x="329.9884643555" y="1362.0009765625" type="line"/>
			<point x="550.8112182617" y="742.4075317383" type="line"/>
			<point x="675" y="370" type="line"/>
			<point x="710" y="256" type="line"/>
			<point x="720" y="256" type="line"/>
			<point x="759" y="370" type="line"/>
			<point x="868" y="674" type="line"/>
			<point x="996" y="1038" type="line"/>
			<point x="824.1542358398" y="1354.0009765625" type="line"/>
			<point x="690.6141967773" y="1384.0009765625" type="line"/>
			<point x="690.6141967773" y="1500" type="line"/>
			<point x="1167.1447753906" y="1500" type="line"/>
			<point x="1167.1447753906" y="1384.0009765625" type="line"/>
			<point x="1027.6047363281" y="1357.0009765625" type="line"/>
			<point x="1187.7947998047" y="882.9963378906" type="line"/>
			<point x="1397" y="370" type="line"/>
			<point x="1430" y="256" type="line"/>
			<point x="1440" y="256" type="line"/>
			<point x="1476" y="370" type="line"/>
			<point x="1629" y="803" type="line"/>
			<point x="1763.7219848633" y="1355.0009765625" type="line"/>
			<point x="1586.7970581055" y="1389.0009765625" type="line"/>
			<point x="1586.7970581055" y="1500" type="line"/>
			<point x="2056.2213745117" y="1500" type="line"/>
			<point x="2056.2213745117" y="1391.0009765625" type="line"/>
			<point x="1880.450378418" y="1360.0009765625" type="line"/>
			<point x="1747" y="760" type="line"/>
			<point x="1380.1912841797" y="14.9267578125" type="line"/>
			<point x="1263.3171386719" y="14.9267578125" type="line"/>
			<point x="1096" y="750" type="line"/>
			<point x="1060" y="866" type="line"/>
			<point x="1050" y="866" type="line"/>
			<point x="1014" y="750" type="line"/>
			<point x="697.9280395508" y="14.9267578125" type="line"/>
		</contour>
	</outline>
	<anchor name="bottom" x="1051" y="0"/>
	<anchor name="top" x="1051" y="1500"/>
</glyph>
<glyph name="X" format="2">
	<unicode hex="0058"/>
	<advance width="1242"/>
	<outline>
		<contour>
			<point x="-8.2877197266" y="0" type="line"/>
			<point x="-8.2877197266" y="100.9990234375" type="line"/>
			<point x="180.2523193359" y="134.9990234375" type="line"/>
			<point x="575" y="786" type="line"/>
			<point x="168.0424804688" y="1352.0009765625" type="line"/>
			<point x="35.1179199219" y="1389.0009765625" type="line"/>
			<point x="35.1179199219" y="1500" type="line"/>
			<point x="431.1676025391" y="1500" type="line"/>
			<point x="431.1676025391" y="1389.0009765625" type="line"/>
			<point x="294.3198242188" y="1353.0009765625" type="line"/>
			<point x="601" y="1043" type="line"/>
			<point x="673" y="929" type="line"/>
			<point x="683" y="929" type="line"/>
			<point x="751" y="1043" type="line"/>
			<point x="823.8492431641" y="1351.0009765625" type="line"/>
			<point x="660.1552734375" y="1389.0009765625" type="line"/>
			<point x="660.1552734375" y="1500" type="line"/>
			<point x="1110.7449951172" y="1500" type="line"/>
			<point x="1110.7449951172" y="1389.0009765625" type="line"/>
			<point x="924.5894775391" y="1352.0009765625" type="line"/>
			<point x="753" y="818" type="line"/>
			<point x="1087.1979370117" y="133.9990234375" type="line"/>
			<point x="1259.7379760742" y="100.9990234375" type="line"/>
			<point x="1259.7379760742" y="0" type="line"/>
			<point x="792.3091430664" y="0" type="line"/>
			<point x="792.3091430664" y="100.9990234375" type="line"/>
			<point x="945.1569213867" y="133.9990234375" type="line"/>
			<point x="727" y="562" type="line"/>
			<point x="655" y="676" type="line"/>
			<point x="645" y="676" type="line"/>
			<point x="577" y="562" type="line"/>
			<point x="282.9925537109" y="135.9990234375" type="line"/>
			<point x="445.6865234375" y="100.9990234375" type="line"/>
			<point x="445.6865234375" y="0" type="line"/>
		</contour>
	</outline>
	<anchor name="bottom" x="661" y="0"/>
	<anchor name="top" x="673" y="1500"/>
	<anchor name="cy_descender" x="1386" y="100"/>
	<anchor name="center" x="663" y="811"/>
</glyph>
<glyph name="Y" format="2">
	<unicode hex="0059"/>
	<advance width="1232"/>
	<outline>
		<contour>
			<point x="297.462890625" y="0" type="line"/>
			<point x="297.462890625" y="99.9990234375" type="line"/>
			<point x="515.0034179688" y="133.9990234375" type="line"/>
			<point x="517.0034179688" y="652.2397460938" type="line"/>
			<point x="410.0783691406" y="877.448059082" type="line"/>
			<point x="147.1682128906" y="1347.0009765625" type="line"/>
			<point x="-7.6794433594" y="1389.0009765625" type="line"/>
			<point x="-7.6794433594" y="1500" type="line"/>
			<point x="481.6722412109" y="1500" type="line"/>
			<point x="481.6722412109" y="1389.0009765625" type="line"/>
			<point x="329.2092285156" y="1356.0009765625" type="line"/>
			<point x="569.2379760742" y="899.9833984375" type="line"/>
			<point x="621.7754516602" y="751.0528564453" type="line"/>
			<point x="633.7754516602" y="751.0528564453" type="line"/>
			<point x="779.4844970703" y="1069.5657958984" type="line"/>
			<point x="946.2278442383" y="1349.0009765625" type="line"/>
			<point x="758.9183959961" y="1389.0009765625" type="line"/>
			<point x="758.9183959961" y="1500" type="line"/>
			<point x="1255.7326049805" y="1500" type="line"/>
			<point x="1255.7326049805" y="1389.0009765625" type="line"/>
			<point x="1062.192565918" y="1348.0009765625" type="line"/>
			<point x="841.8817138672" y="970.328125" type="line"/>
			<point x="688.2670898438" y="653.5859375" type="line"/>
			<point x="690.5346679688" y="133.9990234375" type="line"/>
			<point x="908.1520996094" y="99.9990234375" type="line"/>
			<point x="908.1520996094" y="0" type="line"/>
		</contour>
	</outline>
	<anchor name="bottom" x="636" y="0"/>
	<anchor name="top" x="640" y="1500"/>
	<anchor name="tonos" x="-100" y="1500"/>
	<anchor name="center" x="636" y="582"/>
</glyph>
<glyph name="a" format="2">
	<unicode hex="0061"/>
	<advance width="1038"/>
	<outline>
		<contour>
			<point x="32.2060546875" y="247.8317871094" type="qcurve" smooth="yes"/>
			<point x="32.2060546875" y="375.3083496094"/>
			<point x="416" y="583"/>
			<point x="780" y="630" type="qcurve"/>
			<point x="808.7145385742" y="567.3188476562" type="line"/>
			<point x="516.4642944336" y="560.5330810547"/>
			<point x="190.2514648438" y="429.8802490234"/>
			<point x="190.2514648438" y="297.0227050781" type="qcurve" smooth="yes"/>
			<point x="190.2514648438" y="197.4219970703"/>
			<point x="283.1724243164" y="120.0642089844"/>
			<point x="370.1332397461" y="120.0642089844" type="qcurve" smooth="yes"/>
			<point x="445.4422607422" y="120.0642089844"/>
			<point x="642.3135375977" y="207.9348144531"/>
			<point x="667.5028686523" y="244.7808837891" type="qcurve"/>
			<point x="654.5028686523" y="682.5101318359" type="line" smooth="yes"/>
			<point x="652.5028686523" y="826.7855224609"/>
			<point x="544.9033813477" y="904.8071289062"/>
			<point x="446.8397827148" y="904.8071289062" type="qcurve" smooth="yes"/>
			<point x="342.1137084961" y="904.8071289062"/>
			<point x="269.0872192383" y="860.1070556641"/>
			<point x="277.1831054688" y="865.6336669922" type="qcurve"/>
			<point x="291.1205444336" y="840.8154296875"/>
			<point x="348.6744995117" y="779.3786621094"/>
			<point x="353.3968505859" y="728.3015136719" type="qcurve" smooth="yes"/>
			<point x="365.6976928711" y="681.9741210938"/>
			<point x="284.1315917969" y="615.5122070312"/>
			<point x="239.0732421875" y="615.5122070312" type="qcurve" smooth="yes"/>
			<point x="206.4184570312" y="615.5122070312"/>
			<point x="133.2208251953" y="690.4548339844"/>
			<point x="133.2208251953" y="769.9167480469" type="qcurve" smooth="yes"/>
			<point x="133.2208251953" y="896.8620605469"/>
			<point x="287.6508789062" y="1021.666015625"/>
			<point x="424.9860839844" y="1021.666015625" type="qcurve" smooth="yes"/>
			<point x="603.5815429688" y="1021.666015625"/>
			<point x="811.760925293" y="900.8187255859"/>
			<point x="815.760925293" y="791.5242919922" type="qcurve" smooth="yes"/>
			<point x="823.760925293" y="116.00390625" type="line"/>
			<point x="976.3850708008" y="81.00390625" type="line"/>
			<point x="976.3850708008" y="0" type="line"/>
			<point x="706.7145385742" y="0" type="line"/>
			<point x="679.7145385742" y="40" type="line"/>
			<point x="663.0627441406" y="90.7103271484" type="line"/>
			<point x="635.5054321289" y="56.0739746094"/>
			<point x="339.5928955078" y="-11.5366210938"/>
			<point x="216.5259399414" y="-11.5366210938" type="qcurve" smooth="yes"/>
			<point x="159.5243530273" y="-11.5366210938"/>
			<point x="32.2060546875" y="132.4117431641"/>
		</contour>
	</outline>
	<anchor name="bottom" x="548" y="0"/>
	<anchor name="ogonek" x="878" y="0"/>
	<anchor name="top" x="514" y="1000"/>
</glyph>
<glyph name="b" format="2">
	<unicode hex="0062"/>
	<advance width="1118"/>
	<outline>
		<contour>
			<point x="155.3321533203" y="0" type="line"/>
			<point x="155.3321533203" y="532.9968261719" type="line"/>
			<point x="156.5438232422" y="1367.396484375" type="line"/>
			<point x="4.37890625" y="1401.396484375" type="line"/>
			<point x="4.37890625" y="1500" type="line"/>
			<point x="244.6861572266" y="1529.0244140625" type="line"/>
			<point x="277.6861572266" y="1529.0244140625" type="line"/>
			<point x="334.6861572266" y="1482.0244140625" type="line"/>
			<point x="332.6861572266" y="822.6629638672" type="line"/>
			<point x="353.2552490234" y="905.6579589844"/>
			<point x="549.2874755859" y="1015.4008789062"/>
			<point x="680.4439697266" y="1015.4008789062" type="qcurve" smooth="yes"/>
			<point x="837.6478271484" y="1015.4008789062"/>
			<point x="1053.2283935547" y="785.8002929688"/>
			<point x="1053.2283935547" y="532.9230957031" type="qcurve" smooth="yes"/>
			<point x="1053.2283935547" y="258.5598144531"/>
			<point x="843.6051025391" y="-8.2780761719"/>
			<point x="615.8114013672" y="-8.2780761719" type="qcurve" smooth="yes"/>
			<point x="532.7103271484" y="-8.2780761719"/>
			<point x="351.0446777344" y="56.4877929688"/>
			<point x="310.3399658203" y="95.0720214844" type="qcurve"/>
			<point x="240.3399658203" y="0" type="line"/>
		</contour>
		<contour>
			<point x="334.6861572266" y="370.2078857422" type="line"/>
			<point x="334.6861572266" y="184.2708740234" type="line"/>
			<point x="352.3006591797" y="141.1005859375"/>
			<point x="517.0147705078" y="91.3724365234"/>
			<point x="597.4815673828" y="91.3724365234" type="qcurve" smooth="yes"/>
			<point x="725.4256591797" y="91.3724365234"/>
			<point x="897.9693603516" y="274.5830078125"/>
			<point x="897.9693603516" y="489.7185058594" type="qcurve" smooth="yes"/>
			<point x="897.9693603516" y="697.3420410156"/>
			<point x="718.7407226562" y="875.5083007812"/>
			<point x="587.5025634766" y="875.5083007812" type="qcurve" smooth="yes"/>
			<point x="490.2716064453" y="875.5083007812"/>
			<point x="356.6287841797" y="838.5822753906"/>
			<point x="334.6861572266" y="819.666015625" type="qcurve"/>
		</contour>
	</outline>
	<anchor name="bottom" x="571" y="0"/>
	<anchor name="top" x="571" y="1533"/>
</glyph>
<glyph name="c" format="2">
	<unicode hex="0063"/>
	<advance width="976"/>
	<outline>
		<contour>
			<point x="63.9991455078" y="487.2463378906" type="qcurve" smooth="yes"/>
			<point x="63.9991455078" y="757.4064941406"/>
			<point x="364.3270874023" y="1021.6873779297"/>
			<point x="613.9210205078" y="1021.6873779297" type="qcurve" smooth="yes"/>
			<point x="718.6329345703" y="1021.6873779297"/>
			<point x="801.8070068359" y="983.4239501953"/>
			<point x="857.3134765625" y="946.1654052734" type="qcurve"/>
			<point x="889.2109375" y="1006.8125" type="line"/>
			<point x="877.1077880859" y="1006.8125" type="line"/>
			<point x="882.1077880859" y="654.0341796875" type="line"/>
			<point x="865.3544921875" y="652.0341796875" type="line"/>
			<point x="826.45703125" y="788.3283691406" type="line" smooth="yes"/>
			<point x="800.6005859375" y="846.3283691406"/>
			<point x="673.1108398438" y="895.1907958984"/>
			<point x="583.0093994141" y="895.1907958984" type="qcurve" smooth="yes"/>
			<point x="446.9182739258" y="895.1907958984"/>
			<point x="254.9881591797" y="740.2858276367"/>
			<point x="254.9881591797" y="529.2899169922" type="qcurve" smooth="yes"/>
			<point x="254.9881591797" y="379.5768432617"/>
			<point x="371.5905151367" y="149.04296875"/>
			<point x="541.2113037109" y="149.04296875" type="qcurve" smooth="yes"/>
			<point x="672.9406738281" y="149.04296875"/>
			<point x="846.2677001953" y="195.1224365234"/>
			<point x="925.4339599609" y="245.0347900391" type="qcurve"/>
			<point x="989.3138427734" y="182" type="line"/>
			<point x="890.6009521484" y="67"/>
			<point x="691.2779541016" y="-17.0244140625"/>
			<point x="553.8485107422" y="-17.0244140625" type="qcurve" smooth="yes"/>
			<point x="378.6009521484" y="-17.0244140625"/>
			<point x="63.9991455078" y="246.3913574219"/>
		</contour>
	</outline>
	<anchor name="bottom" x="563" y="0"/>
	<anchor name="top" x="534" y="1000"/>
</glyph>
<glyph name="d" format="2">
	<unicode hex="0064"/>
	<advance width="1173"/>
	<outline>
		<contour>
			<point x="66.1546630859" y="487.4173583984" type="qcurve" smooth="yes"/>
			<point x="66.1546630859" y="716.5777587891"/>
			<point x="334.3492431641" y="1014.3959960938"/>
			<point x="588.7926025391" y="1014.3959960938" type="qcurve" smooth="yes"/>
			<point x="651.3375244141" y="1014.3959960938"/>
			<point x="761.2115478516" y="989.9067382812"/>
			<point x="808.9610595703" y="971.7922363281" type="qcurve"/>
			<point x="794.3892822266" y="1377.99609375" type="line"/>
			<point x="644.2243652344" y="1411.99609375" type="line"/>
			<point x="644.2243652344" y="1500" type="line"/>
			<point x="915.4068603516" y="1529.0244140625" type="line"/>
			<point x="948.4068603516" y="1529.0244140625" type="line"/>
			<point x="978.9459228516" y="1482.0244140625" type="line"/>
			<point x="974.9459228516" y="495.6007080078" type="line"/>
			<point x="981.9459228516" y="116.00390625" type="line"/>
			<point x="1134.2727050781" y="81.00390625" type="line"/>
			<point x="1134.2727050781" y="0" type="line"/>
			<point x="890.1842041016" y="0" type="line"/>
			<point x="845.2047119141" y="49" type="line"/>
			<point x="818.3380126953" y="135.2429199219" type="line"/>
			<point x="782.3206787109" y="85.4294433594"/>
			<point x="650.2091064453" y="-12.2780761719"/>
			<point x="532.5128173828" y="-12.2780761719" type="qcurve" smooth="yes"/>
			<point x="336.4891357422" y="-12.2780761719"/>
			<point x="66.1546630859" y="256.4761962891"/>
		</contour>
		<contour>
			<point x="234.4898681641" y="523.5366210938" type="qcurve" smooth="yes"/>
			<point x="234.4898681641" y="255.6201171875"/>
			<point x="410.3128662109" y="110.0975341797"/>
			<point x="538.6688232422" y="110.0975341797" type="qcurve" smooth="yes"/>
			<point x="645.1204833984" y="110.0975341797"/>
			<point x="784.9744873047" y="159.5682373047"/>
			<point x="834.3218994141" y="205.8967285156" type="qcurve"/>
			<point x="840.2603759766" y="499.7332763672" type="line"/>
			<point x="835.2603759766" y="842.1765136719" type="line"/>
			<point x="792.2000732422" y="897.7065429688"/>
			<point x="647.6114501953" y="959.6125488281"/>
			<point x="549.3804931641" y="959.6125488281" type="qcurve" smooth="yes"/>
			<point x="405.7597045898" y="959.6125488281"/>
			<point x="234.4898681641" y="776.177734375"/>
		</contour>
	</outline>
	<anchor name="bottom" x="604" y="0"/>
	<anchor name="center" x="876" y="1202"/>
	<anchor name="top" x="604" y="1534"/>
	<anchor name="topright" x="961" y="1000"/>
	<anchor name="liga" x="1207" y="0"/>
</glyph>
<glyph name="k" format="2">
	<unicode hex="006B"/>
	<advance width="1012"/>
	<outline>
		<contour>
			<point x="74.7651367188" y="0" type="line"/>
			<point x="74.7651367188" y="81.00390625" type="line"/>
			<point x="209.8215332031" y="116.00390625" type="line"/>
			<point x="211.8215332031" y="557" type="line"/>
			<point x="209.8215332031" y="1370.99609375" type="line"/>
			<point x="57.9809570312" y="1404.99609375" type="line"/>
			<point x="57.9809570312" y="1493.5131835938" type="line"/>
			<point x="287.8679199219" y="1529.0244140625" type="line"/>
			<point x="319.8679199219" y="1529.0244140625" type="line"/>
			<point x="376.8679199219" y="1482.0244140625" type="line"/>
			<point x="372.8679199219" y="612" type="line"/>
			<point x="375.8679199219" y="116.00390625" type="line"/>
			<point x="459.626953125" y="81.00390625" type="line"/>
			<point x="459.626953125" y="0" type="line"/>
		</contour>
		<contour>
			<point x="303" y="376" type="line"/>
			<point x="303" y="490" type="line"/>
			<point x="691.9010009766" y="873.8603515625" type="line"/>
			<point x="567.9010009766" y="903.8603515625" type="line"/>
			<point x="567.9010009766" y="1004.8642578125" type="line"/>
			<point x="896.6437988281" y="1004.8642578125" type="line"/>
			<point x="896.6437988281" y="903.8603515625" type="line"/>
			<point x="741.6437988281" y="868.8603515625" type="line"/>
		</contour>
		<contour>
			<point x="431.9533081055" y="581.4761352539" type="line"/>
			<point x="499.6107788086" y="727.9232177734" type="line"/>
			<point x="921.0615844727" y="113.00390625" type="line"/>
			<point x="1017.1167602539" y="81.00390625" type="line"/>
			<point x="1017.1167602539" y="0" type="line"/>
			<point x="868.0256958008" y="0" type="line"/>
			<point x="830.0256958008" y="-40.99609375" type="line"/>
			<point x="825.0256958008" y="49.00390625" type="line"/>
		</contour>
	</outline>
	<anchor name="bottom" x="608" y="0"/>
	<anchor name="top" x="578" y="1534"/>
</glyph>
<glyph name="l" format="2">
	<unicode hex="006C"/>
	<advance width="608"/>
	<outline>
		<contour>
			<point x="80.4830322266" y="0" type="line"/>
			<point x="80.4830322266" y="81.00390625" type="line"/>
			<point x="223.0262451172" y="116.00390625" type="line"/>
			<point x="223.0262451172" y="527" type="line"/>
			<point x="223.0262451172" y="1368.99609375" type="line"/>
			<point x="62.6988525391" y="1402.99609375" type="line"/>
			<point x="62.6988525391" y="1500" type="line"/>
			<point x="309.0340576172" y="1529.0244140625" type="line"/>
			<point x="338.0340576172" y="1527.0244140625" type="line"/>
			<point x="395.0340576172" y="1481.0244140625" type="line"/>
			<point x="395.0340576172" y="527" type="line"/>
			<point x="397.0340576172" y="116.00390625" type="line"/>
			<point x="539.2799072266" y="81.00390625" type="line"/>
			<point x="539.2799072266" y="0" type="line"/>
		</contour>
	</outline>
	<anchor name="bottom" x="316" y="0"/>
	<anchor name="center" x="316" y="750"/>
	<anchor name="top" x="316" y="1534"/>
	<anchor name="topright" x="367" y="1000"/>
	<anchor name="centerright" x="746" y="680"/>
	<anchor name="yu_dash" x="321" y="500"/>
	<anchor name="liga" x="632" y="0"/>
</glyph>
<glyph name="m" format="2">
	<unicode hex="006D"/>
	<advance width="1948"/>
	<outline>
		<contour>
			<point x="76.5335693359" y="0" type="line"/>
			<point x="76.5335693359" y="81.00390625" type="line"/>
			<point x="225.5360107422" y="116.00390625" type="line"/>
			<point x="227.5360107422" y="577" type="line"/>
			<point x="225.5360107422" y="851.4266357422" type="line"/>
			<point x="76.5335693359" y="881.4266357422" type="line"/>
			<point x="76.5335693359" y="975.4305419922" type="line"/>
			<point x="327.7169189453" y="1012.4549560547" type="line"/>
			<point x="362.7169189453" y="985.4549560547" type="line"/>
			<point x="375.7169189453" y="886.4305419922" type="line"/>
			<point x="429.1627197266" y="951.4305419922"/>
			<point x="607.1566772461" y="1015.7135009766"/>
			<point x="720.7202148438" y="1015.7135009766" type="qcurve" smooth="yes"/>
			<point x="879.6541748047" y="1015.7135009766"/>
			<point x="1014.6574707031" y="919.7135009766"/>
			<point x="1034.9740600586" y="876.8668212891" type="qcurve"/>
			<point x="1075.3549804688" y="917.7135009766"/>
			<point x="1283.3982543945" y="1014.7135009766"/>
			<point x="1390.5960693359" y="1014.7135009766" type="qcurve" smooth="yes"/>
			<point x="1532.356628418" y="1014.7135009766"/>
			<point x="1681.8656616211" y="863.7135009766"/>
			<point x="1681.8656616211" y="741.7135009766" type="qcurve" smooth="yes"/>
			<point x="1680.8656616211" y="713.7265625"/>
			<point x="1685.2588500977" y="557.5417480469"/>
			<point x="1684.692565918" y="621" type="qcurve" smooth="yes"/>
			<point x="1688.692565918" y="115.00390625" type="line"/>
			<point x="1841.6950073242" y="81.00390625" type="line"/>
			<point x="1841.6950073242" y="0" type="line"/>
			<point x="1509.4003295898" y="0" type="line"/>
			<point x="1509.4003295898" y="81.00390625" type="line"/>
			<point x="1561.6461791992" y="116.00390625" type="line"/>
			<point x="1561.6461791992" y="570" type="line"/>
			<point x="1566.2979736328" y="745.6606445312" type="line" smooth="yes"/>
			<point x="1568.1586914062" y="820.6606445312"/>
			<point x="1454.4960327148" y="869.6606445312"/>
			<point x="1351.8583984375" y="869.6606445312" type="qcurve" smooth="yes"/>
			<point x="1250.2545776367" y="869.6606445312"/>
			<point x="1075.9180908203" y="777.5594482422"/>
			<point x="1041.4948120117" y="727.743347168" type="qcurve"/>
			<point x="1037.7733764648" y="728.1638183594"/>
			<point x="1039.669921875" y="610.0720214844"/>
			<point x="1038.8430175781" y="584" type="qcurve" smooth="yes"/>
			<point x="1038.8430175781" y="116.00390625" type="line"/>
			<point x="1146.8454589844" y="81.00390625" type="line"/>
			<point x="1146.8454589844" y="0" type="line"/>
			<point x="861.8969726562" y="0" type="line"/>
			<point x="861.8969726562" y="81.00390625" type="line"/>
			<point x="913.1428222656" y="116.00390625" type="line"/>
			<point x="913.1428222656" y="610" type="line"/>
			<point x="913.1428222656" y="780.6606445312" type="line" smooth="yes"/>
			<point x="913.1428222656" y="838.6606445312"/>
			<point x="791.5498046875" y="870.6606445312"/>
			<point x="705.4943237305" y="870.6606445312" type="qcurve" smooth="yes"/>
			<point x="612.5084838867" y="870.6606445312"/>
			<point x="427.2098388672" y="777.255859375"/>
			<point x="393.7169189453" y="720.8576049805" type="qcurve"/>
			<point x="393.7169189453" y="570" type="line"/>
			<point x="393.7169189453" y="116.00390625" type="line"/>
			<point x="496.4759521484" y="81.00390625" type="line"/>
			<point x="496.4759521484" y="0" type="line"/>
		</contour>
	</outline>
	<anchor name="bottom" x="958" y="0"/>
	<anchor name="top" x="958" y="1000"/>
</glyph>
<glyph name="n" format="2">
	<unicode hex="006E"/>
	<advance width="1272"/>
	<outline>
		<contour>
			<point x="77" y="0" type="line"/>
			<point x="77" y="81" type="line"/>
			<point x="225" y="116" type="line"/>
			<point x="227" y="582" type="line"/>
			<point x="225" y="852" type="line"/>
			<point x="77" y="882" type="line"/>
			<point x="77" y="969" type="line"/>
			<point x="327" y="1012" type="line"/>
			<point x="362" y="985" type="line"/>
			<point x="381" y="823" type="line"/>
			<point x="437" y="899"/>
			<point x="618" y="1016"/>
			<point x="766" y="1016" type="qcurve" smooth="yes"/>
			<point x="913" y="1016"/>
			<point x="1060" y="864"/>
			<point x="1060" y="743" type="qcurve" smooth="yes"/>
			<point x="1060" y="722"/>
			<point x="1057" y="612"/>
			<point x="1057" y="608" type="qcurve" smooth="yes"/>
			<point x="1061" y="115" type="line"/>
			<point x="1214" y="81" type="line"/>
			<point x="1214" y="0" type="line"/>
			<point x="828" y="0" type="line"/>
			<point x="828" y="80" type="line"/>
			<point x="880" y="116" type="line"/>
			<point x="882" y="635" type="line"/>
			<point x="882" y="752" type="line" smooth="yes"/>
			<point x="882" y="819"/>
			<point x="786" y="870"/>
			<point x="681" y="870" type="qcurve" smooth="yes"/>
			<point x="577" y="870"/>
			<point x="416" y="783"/>
			<point x="396" y="718" type="qcurve"/>
			<point x="394" y="642" type="line"/>
			<point x="394" y="116" type="line"/>
			<point x="497" y="81" type="line"/>
			<point x="497" y="0" type="line"/>
		</contour>
	</outline>
	<anchor name="bottom" x="632" y="0"/>
	<anchor name="top" x="632" y="1000"/>
	<anchor name="liga" x="1264" y="0"/>
</glyph>
<glyph name="o" format="2">
	<unicode hex="006F"/>
	<advance width="1139"/>
	<outline>
		<contour>
			<point x="63.9991455078" y="502.4321289062" type="qcurve" smooth="yes"/>
			<point x="63.9991455078" y="745.8951416016"/>
			<point x="331.9708251953" y="1018.6594238281"/>
			<point x="566.0531005859" y="1018.6594238281" type="qcurve" smooth="yes"/>
			<point x="804.7891845703" y="1018.6594238281"/>
			<point x="1075.0274658203" y="765.1962890625"/>
			<point x="1075.0274658203" y="508.4321289062" type="qcurve" smooth="yes"/>
			<point x="1075.0274658203" y="264.2276611328"/>
			<point x="807.9315185547" y="-14.5366210938"/>
			<point x="571.0223388672" y="-14.5366210938" type="qcurve" smooth="yes"/>
			<point x="335.2760009766" y="-14.5366210938"/>
			<point x="63.9991455078" y="242.9265136719"/>
		</contour>
		<contour>
			<point x="231.0267333984" y="514.4321289062" type="qcurve" smooth="yes"/>
			<point x="232.576171875" y="343.4196777344"/>
			<point x="416.3912963867" y="74.0262451172"/>
			<point x="571.0120849609" y="74.0262451172" type="qcurve" smooth="yes"/>
			<point x="733.3095703125" y="74.0262451172"/>
			<point x="904.0384521484" y="318.3403930664"/>
			<point x="904.0384521484" y="501.4321289062" type="qcurve" smooth="yes"/>
			<point x="904.0384521484" y="670.3472290039"/>
			<point x="722.7799072266" y="901.6572265625"/>
			<point x="570.0120849609" y="901.6572265625" type="qcurve" smooth="yes"/>
			<point x="407.8616333008" y="901.6572265625"/>
			<point x="229.4772949219" y="694.6226196289"/>
		</contour>
	</outline>
	<anchor name="bottom" x="584" y="0"/>
	<anchor name="center" x="584" y="500"/>
	<anchor name="ogonek" x="747" y="0"/>
	<anchor name="top" x="584" y="1000"/>
	<anchor name="topright" x="751" y="1000"/>
	<anchor name="GRKtop" x="584" y="1000"/>
	<anchor name="yu_dash" x="150" y="500"/>
</glyph>
<glyph name="r" format="2">
	<unicode hex="0072"/>
	<advance width="1018"/>
	<outline>
		<contour>
			<point x="78.0029296875" y="0" type="line"/>
			<point x="78.0029296875" y="81.00390625" type="line"/>
			<point x="222.0053710938" y="116.00390625" type="line"/>
			<point x="225.0053710938" y="527.3601074219" type="line"/>
			<point x="223.0053710938" y="851.4266357422" type="line"/>
			<point x="75.0029296875" y="881.4266357422" type="line"/>
			<point x="75.0029296875" y="975.4305419922" type="line"/>
			<point x="326.3781738281" y="1012.4549560547" type="line"/>
			<point x="360.4478149414" y="985.4549560547" type="line"/>
			<point x="385.205078125" y="805.4305419922" type="line"/>
			<point x="442.8137207031" y="898.4305419922"/>
			<point x="697.1203613281" y="1017.2700195312"/>
			<point x="811.4001464844" y="1012.7037353516" type="qcurve" smooth="yes"/>
			<point x="986.4967651367" y="1010.7037353516" type="line"/>
			<point x="986.4967651367" y="650.205871582" type="line"/>
			<point x="877.5345458984" y="650.205871582" type="line"/>
			<point x="858.5345458984" y="785.5262451172" type="line"/>
			<point x="736.7297973633" y="785.5262451172"/>
			<point x="480.1957397461" y="765.6373291016"/>
			<point x="390.0517578125" y="730.8350830078" type="qcurve"/>
			<point x="387.0517578125" y="562.3601074219" type="line"/>
			<point x="387.0517578125" y="116.00390625" type="line"/>
			<point x="574.2976074219" y="81.00390625" type="line"/>
			<point x="574.2976074219" y="0" type="line"/>
		</contour>
	</outline>
	<anchor name="bottom" x="432" y="0"/>
	<anchor name="top" x="486" y="1000"/>
</glyph>
<glyph name="s" format="2">
	<unicode hex="0073"/>
	<advance width="898"/>
	<outline>
		<contour>
			<point x="-2.0384267299" y="2.3529052734" type="line"/>
			<point x="-2.0384267299" y="276.0098876953" type="line"/>
			<point x="67.6731821568" y="276.0098876953" type="line"/>
			<point x="102.6731821568" y="185.7156982422" type="line" smooth="yes"/>
			<point x="120.6885270575" y="137.7156982422"/>
			<point x="280.6497697333" y="95.1986083984"/>
			<point x="385.5007218817" y="95.1986083984" type="qcurve" smooth="yes"/>
			<point x="509.2720231513" y="95.1986083984"/>
			<point x="693.9092912177" y="196.4906005859"/>
			<point x="692.9195451239" y="265.7552490234" type="qcurve" smooth="yes"/>
			<point x="691.9297990302" y="348.1042480469"/>
			<point x="551.6694230536" y="412.45703125"/>
			<point x="393.1744279364" y="445.8386230469" type="qcurve" smooth="yes"/>
			<point x="203.3924455145" y="504.1003417969"/>
			<point x="58.830922077" y="650.2010498047"/>
			<point x="60.7950693638" y="740.7882080078" type="qcurve" smooth="yes"/>
			<point x="62.789906452" y="859.9035644531"/>
			<point x="293.2632340888" y="1024.1374511719"/>
			<point x="477.3170670966" y="1024.1374511719" type="qcurve" smooth="yes"/>
			<point x="597.0943498114" y="1024.1374511719"/>
			<point x="674.9683122138" y="978.5180664062"/>
			<point x="691.8593644599" y="959.5180664062" type="qcurve"/>
			<point x="741.8593644599" y="1002.5113525391" type="line"/>
			<point x="745.6126603583" y="1002.5113525391" type="line"/>
			<point x="745.6126603583" y="783.8981933594" type="line"/>
			<point x="657.8593644599" y="783.8981933594" type="line"/>
			<point x="622.9926652411" y="834.0192871094" type="line" smooth="yes"/>
			<point x="599.0644425849" y="875.1923828125"/>
			<point x="520.6920060614" y="912.4655761719"/>
			<point x="458.57622237" y="912.4655761719" type="qcurve" smooth="yes"/>
			<point x="355.5161637763" y="912.4655761719"/>
			<point x="224.5259904364" y="846.6130371094"/>
			<point x="224.5259904364" y="796.8991699219" type="qcurve" smooth="yes"/>
			<point x="224.5259904364" y="737.8468017578"/>
			<point x="316.0021006138" y="657.2601318359"/>
			<point x="481.7816416295" y="617.8156738281" type="qcurve" smooth="yes"/>
			<point x="620.1272226841" y="590.30859375"/>
			<point x="859.2127580145" y="443.9152832031"/>
			<point x="859.2127580145" y="296.5690917969" type="qcurve" smooth="yes"/>
			<point x="859.2127580145" y="152.7521972656"/>
			<point x="636.2907609442" y="-18.5170898438"/>
			<point x="451.3474015692" y="-18.5170898438" type="qcurve" smooth="yes"/>
			<point x="333.5786637763" y="-18.5170898438"/>
			<point x="131.0521745184" y="20.5192871094"/>
			<point x="84.7148691685" y="55.3461914062" type="qcurve"/>
			<point x="46.6731821568" y="2.3529052734" type="line"/>
		</contour>
	</outline>
	<anchor name="bottom" x="468" y="0"/>
	<anchor name="top" x="416" y="1000"/>
</glyph>
<glyph name="t" format="2">
	<unicode hex="0074"/>
	<advance width="653"/>
	<outline>
		<contour>
			<point x="23.2255859375" y="863.8420410156" type="line"/>
			<point x="23.2255859375" y="953.9431152344" type="line"/>
			<point x="150.2255859375" y="974.9431152344"/>
			<point x="233.2369995117" y="1082.1408691406"/>
			<point x="271.9138183594" y="1259.1408691406" type="qcurve"/>
			<point x="305.78515625" y="1259.1408691406" type="line"/>
			<point x="352.78515625" y="1208.1408691406" type="line"/>
			<point x="357.78515625" y="964.1408691406" type="line"/>
			<point x="595.7209472656" y="964.1408691406" type="line"/>
			<point x="595.7209472656" y="851.8420410156" type="line"/>
			<point x="356.78515625" y="851.8420410156" type="line"/>
			<point x="356.78515625" y="548.6857910156" type="line"/>
			<point x="363.78515625" y="226.8482666016" type="line" smooth="yes"/>
			<point x="364.2357177734" y="177.8482666016"/>
			<point x="416.78515625" y="126.8482666016"/>
			<point x="494.7209472656" y="126.8482666016" type="qcurve" smooth="yes"/>
			<point x="586.7209472656" y="126.8482666016" type="line"/>
			<point x="586.7209472656" y="31" type="line"/>
			<point x="384.6259765625" y="-9.7756347656" type="line"/>
			<point x="316.1245117188" y="-9.7756347656"/>
			<point x="182.6042480469" y="127.3974609375"/>
			<point x="184.6042480469" y="244.2243652344" type="qcurve" smooth="yes"/>
			<point x="189.6042480469" y="548.6857910156" type="line"/>
			<point x="189.6042480469" y="835.8420410156" type="line"/>
		</contour>
	</outline>
	<anchor name="bottom" x="322" y="0"/>
	<anchor name="center" x="312" y="622"/>
	<anchor name="top" x="322" y="1179"/>
	<anchor name="topright" x="540" y="1000"/>
</glyph>
<glyph name="u" format="2">
	<unicode hex="0075"/>
	<advance width="1200"/>
	<outline>
		<contour>
			<point x="33.0837402344" y="880.8603515625" type="line"/>
			<point x="33.0837402344" y="974.8642578125" type="line"/>
			<point x="253.61328125" y="1006.8642578125" type="line"/>
			<point x="320.61328125" y="1006.8642578125" type="line"/>
			<point x="357.61328125" y="957.8642578125" type="line"/>
			<point x="355.61328125" y="471.5959472656" type="line"/>
			<point x="355.61328125" y="200.2498779297" type="line" smooth="yes"/>
			<point x="355.61328125" y="153.8033447266"/>
			<point x="476.434753418" y="94.9036865234"/>
			<point x="563.5618896484" y="94.9036865234" type="qcurve" smooth="yes"/>
			<point x="655.1048583984" y="94.9036865234"/>
			<point x="774.6567382812" y="167.0018310547"/>
			<point x="823.0354003906" y="211.892578125" type="qcurve"/>
			<point x="823.0354003906" y="466.3715820312" type="line"/>
			<point x="821.0354003906" y="850.8603515625" type="line"/>
			<point x="756.2763671875" y="880.8603515625" type="line"/>
			<point x="756.2763671875" y="974.8642578125" type="line"/>
			<point x="896.3894042969" y="1006.8642578125" type="line"/>
			<point x="963.3894042969" y="1006.8642578125" type="line"/>
			<point x="999.3894042969" y="957.8642578125" type="line"/>
			<point x="996.3894042969" y="466.3715820312" type="line"/>
			<point x="998.3894042969" y="156.8432617188" type="line"/>
			<point x="1142.3918457031" y="126.8432617188" type="line"/>
			<point x="1142.3918457031" y="23" type="line"/>
			<point x="919.0354003906" y="-11" type="line"/>
			<point x="862.0354003906" y="36" type="line"/>
			<point x="843.7277832031" y="165" type="line"/>
			<point x="778.7349243164" y="85.9951171875"/>
			<point x="605.9200439453" y="-7.7756347656"/>
			<point x="498.8032226562" y="-7.7756347656" type="qcurve" smooth="yes"/>
			<point x="368.044128418" y="-7.7756347656"/>
			<point x="173.0861816406" y="154.9026489258"/>
			<point x="173.0861816406" y="261.2243652344" type="qcurve" smooth="yes"/>
			<point x="173.0861816406" y="321.2243652344"/>
			<point x="179.0861816406" y="454.5959472656"/>
			<point x="179.0861816406" y="499.5959472656" type="qcurve" smooth="yes"/>
			<point x="181.0861816406" y="850.8603515625" type="line"/>
		</contour>
	</outline>
	<anchor name="bottom" x="622" y="0"/>
	<anchor name="ogonek" x="1030" y="20"/>
	<anchor name="top" x="622" y="1000"/>
	<anchor name="topright" x="1005" y="1000"/>
	<anchor name="cy_descender" x="1178" y="80"/>
</glyph>
<glyph name="v" format="2">
	<unicode hex="0076"/>
	<advance width="967"/>
	<outline>
		<contour>
			<point x="-1.4923706055" y="909.8603515625" type="line"/>
			<point x="-1.4923706055" y="1004.8642578125" type="line"/>
			<point x="395.5933227539" y="1004.8642578125" type="line"/>
			<point x="395.5933227539" y="919.8603515625" type="line"/>
			<point x="268.1862182617" y="883.8603515625" type="line"/>
			<point x="414.7888183594" y="480.3471679688" type="line"/>
			<point x="442.6022338867" y="286.9678955078" type="line"/>
			<point x="463.2681274414" y="152.1751098633" type="line"/>
			<point x="475.2681274414" y="152.1751098633" type="line"/>
			<point x="502.02734375" y="285.3140869141" type="line"/>
			<point x="600.4779052734" y="586.0814819336" type="line"/>
			<point x="725.8654785156" y="884.8603515625" type="line"/>
			<point x="597.1610107422" y="919.8603515625" type="line"/>
			<point x="597.1610107422" y="1004.8642578125" type="line"/>
			<point x="995.8495483398" y="1004.8642578125" type="line"/>
			<point x="995.8495483398" y="909.8603515625" type="line"/>
			<point x="852.3339233398" y="874.8603515625" type="line"/>
			<point x="689.2677612305" y="463.3860473633" type="line"/>
			<point x="543.1968383789" y="4.9755859375" type="line"/>
			<point x="408.6233520508" y="4.9755859375" type="line"/>
			<point x="277.7702636719" y="398.2266845703" type="line"/>
			<point x="109.2930297852" y="874.8603515625" type="line"/>
		</contour>
	</outline>
	<anchor name="bottom" x="513" y="0"/>
	<anchor name="top" x="513" y="1000"/>
</glyph>
<glyph name="w" format="2">
	<unicode hex="0077"/>
	<advance width="1612"/>
	<outline>
		<contour>
			<point x="448.8657226562" y="4.9755859375" type="line"/>
			<point x="271.4105224609" y="521.439453125" type="line"/>
			<point x="114.2930297852" y="875.8603515625" type="line"/>
			<point x="-1.4923706055" y="910.8603515625" type="line"/>
			<point x="-1.4923706055" y="1004.8642578125" type="line"/>
			<point x="388.2684936523" y="1004.8642578125" type="line"/>
			<point x="388.2684936523" y="923.8603515625" type="line"/>
			<point x="290.8613891602" y="878.8603515625" type="line"/>
			<point x="438.1701660156" y="489.4837646484" type="line"/>
			<point x="483" y="294" type="line"/>
			<point x="521" y="180" type="line"/>
			<point x="531" y="180" type="line"/>
			<point x="568" y="294" type="line"/>
			<point x="662.4462890625" y="384.3988647461" type="line"/>
			<point x="725" y="747" type="line"/>
			<point x="663.123046875" y="875.8603515625" type="line"/>
			<point x="568.5810546875" y="923.8603515625" type="line"/>
			<point x="568.5810546875" y="1004.8642578125" type="line"/>
			<point x="949.7486572266" y="1004.8642578125" type="line"/>
			<point x="949.7486572266" y="923.8603515625" type="line"/>
			<point x="865.3415527344" y="878.8603515625" type="line"/>
			<point x="1058.5651245117" y="342.1661376953" type="line"/>
			<point x="1045" y="294" type="line"/>
			<point x="1082" y="180" type="line"/>
			<point x="1092" y="180" type="line"/>
			<point x="1128" y="294" type="line"/>
			<point x="1253.2359619141" y="432.9277954102" type="line"/>
			<point x="1419.1387939453" y="879.8603515625" type="line"/>
			<point x="1330.4343261719" y="923.8603515625" type="line"/>
			<point x="1330.4343261719" y="1004.8642578125" type="line"/>
			<point x="1641.0543212891" y="1004.8642578125" type="line"/>
			<point x="1641.0543212891" y="910.8603515625" type="line"/>
			<point x="1496.5386962891" y="875.8603515625" type="line"/>
			<point x="1308" y="496" type="line"/>
			<point x="1207.0067749023" y="4.9755859375" type="line"/>
			<point x="1047.4696044922" y="4.9755859375" type="line"/>
			<point x="830" y="480" type="line"/>
			<point x="790" y="595" type="line"/>
			<point x="780" y="595" type="line"/>
			<point x="741" y="480" type="line"/>
			<point x="574.005065918" y="4.9755859375" type="line"/>
		</contour>
	</outline>
	<anchor name="bottom" x="787" y="0"/>
	<anchor name="top" x="787" y="1000"/>
</glyph>
<glyph name="x" format="2">
	<unicode hex="0078"/>
	<advance width="861"/>
	<outline>
		<contour>
			<point x="11.2324829102" y="0" type="line"/>
			<point x="11.2324829102" y="74.00390625" type="line"/>
			<point x="155.2612915039" y="110.00390625" type="line"/>
			<point x="444" y="480" type="line"/>
			<point x="113.8186645508" y="875.8603515625" type="line"/>
			<point x="6.2766723633" y="910.8603515625" type="line"/>
			<point x="6.2766723633" y="1004.8642578125" type="line"/>
			<point x="320.7221069336" y="1004.8642578125" type="line"/>
			<point x="320.7221069336" y="910.8603515625" type="line"/>
			<point x="260.5584106445" y="873.8603515625" type="line"/>
			<point x="454" y="701" type="line"/>
			<point x="527" y="602" type="line"/>
			<point x="537" y="602" type="line"/>
			<point x="603" y="701" type="line"/>
			<point x="576.1394042969" y="880.8603515625" type="line"/>
			<point x="472.4349365234" y="910.8603515625" type="line"/>
			<point x="472.4349365234" y="1004.8642578125" type="line"/>
			<point x="805.3123779297" y="1004.8642578125" type="line"/>
			<point x="805.3123779297" y="910.8603515625" type="line"/>
			<point x="654.5269775391" y="875.8603515625" type="line"/>
			<point x="594" y="524" type="line"/>
			<point x="715.4119873047" y="110.00390625" type="line"/>
			<point x="843.5217285156" y="74.00390625" type="line"/>
			<point x="843.5217285156" y="0" type="line"/>
			<point x="456.990234375" y="0" type="line"/>
			<point x="456.990234375" y="74.00390625" type="line"/>
			<point x="529.1539306641" y="109.00390625" type="line"/>
			<point x="584" y="305" type="line"/>
			<point x="511" y="402" type="line"/>
			<point x="501" y="402" type="line"/>
			<point x="439" y="305" type="line"/>
			<point x="244.6488647461" y="109.00390625" type="line"/>
			<point x="360.1099243164" y="74.00390625" type="line"/>
			<point x="360.1099243164" y="0" type="line"/>
		</contour>
	</outline>
	<anchor name="bottom" x="522" y="0"/>
	<anchor name="top" x="522" y="1000"/>
	<anchor name="cy_descender" x="1043" y="80"/>
</glyph>
<glyph name="y" format="2">
	<unicode hex="0079"/>
	<advance width="941"/>
	<outline>
		<contour>
			<point x="23.3147583008" y="907.8603515625" type="line"/>
			<point x="23.3147583008" y="1004.8642578125" type="line"/>
			<point x="404.9393920898" y="1004.8642578125" type="line"/>
			<point x="404.9393920898" y="919.8603515625" type="line"/>
			<point x="277.5322875977" y="883.8603515625" type="line"/>
			<point x="419.6480102539" y="521.1176147461" type="line"/>
			<point x="455.5765991211" y="292.5718994141" type="line"/>
			<point x="477.6490478516" y="157.0510864258" type="line"/>
			<point x="489.6490478516" y="157.0510864258" type="line"/>
			<point x="521.917175293" y="289.7854614258" type="line"/>
			<point x="623.0490112305" y="600.0801391602" type="line"/>
			<point x="751.4530639648" y="884.8603515625" type="line"/>
			<point x="622.7485961914" y="919.8603515625" type="line"/>
			<point x="622.7485961914" y="1004.8642578125" type="line"/>
			<point x="971.9490966797" y="1004.8642578125" type="line"/>
			<point x="971.9490966797" y="909.8603515625" type="line"/>
			<point x="828.4334716797" y="874.8603515625" type="line"/>
			<point x="667.6937255859" y="435.3953857422" type="line"/>
			<point x="459.7091064453" y="-99.0158691406" type="line" smooth="yes"/>
			<point x="399.7890014648" y="-355.3919677734"/>
			<point x="270.3321533203" y="-498.2683105469"/>
			<point x="163.9067993164" y="-498.2683105469" type="qcurve"/>
			<point x="28.0869750977" y="-434" type="line"/>
			<point x="28.0869750977" y="-367.5627441406" type="line"/>
			<point x="174.5499267578" y="-367.5627441406" type="line" smooth="yes"/>
			<point x="163.2946777344" y="-367.5627441406"/>
			<point x="278.8670654297" y="-328.7111816406"/>
			<point x="324.1878051758" y="-204.5230712891" type="qcurve" smooth="yes"/>
			<point x="131.7189941406" y="47.5711669922" type="line"/>
			<point x="639.4382324219" y="47.5711669922" type="line"/>
			<point x="259.6244506836" y="509.4819946289" type="line"/>
			<point x="134.1001586914" y="872.8603515625" type="line"/>
		</contour>
	</outline>
	<anchor name="bottom" x="782" y="0"/>
	<anchor name="top" x="524" y="1000"/>
</glyph>
<glyph name="z" format="2">
	<unicode hex="007A"/>
	<advance width="907"/>
	<outline>
		<contour>
			<point x="75.0595092773" y="0" type="line"/>
			<point x="75.0595092773" y="121.0561523438" type="line"/>
			<point x="658.3356933594" y="902.8182373047" type="line"/>
			<point x="112.1089477539" y="902.8182373047" type="line"/>
			<point x="88.1089477539" y="720.876953125" type="line"/>
			<point x="74.98046875" y="720.876953125" type="line"/>
			<point x="74.98046875" y="1004.8642578125" type="line"/>
			<point x="809.2598266602" y="1004.8642578125" type="line"/>
			<point x="809.2598266602" y="884.8081054688" type="line"/>
			<point x="225.6642456055" y="95.0460205078" type="line"/>
			<point x="833.2354125977" y="95.0460205078" type="line"/>
			<point x="857.2354125977" y="273.9873046875" type="line"/>
			<point x="866.7807617188" y="273.9873046875" type="line"/>
			<point x="866.7807617188" y="0" type="line"/>
		</contour>
	</outline>
	<anchor name="bottom" x="443" y="0"/>
	<anchor name="top" x="443" y="1000"/>
	<anchor name="_liga" x="0" y="0"/>
</glyph>
<glyph name="idotless" format="2">
	<unicode hex="0131"/>
	<advance width="587"/>
	<outline>
		<contour>
			<point x="80.5982666016" y="0" type="line"/>
			<point x="80.5982666016" y="81.00390625" type="line"/>
			<point x="234.0875244141" y="116.00390625" type="line"/>
			<point x="236.0875244141" y="571.3371582031" type="line"/>
			<point x="232.1676025391" y="850.8603515625" type="line"/>
			<point x="77.5982666016" y="880.8603515625" type="line"/>
			<point x="77.5982666016" y="969.3774414062" type="line"/>
			<point x="288.0953369141" y="1001.888671875" type="line"/>
			<point x="366.0953369141" y="1001.888671875" type="line"/>
			<point x="409.0953369141" y="957.888671875" type="line"/>
			<point x="403.0953369141" y="571.3371582031" type="line"/>
			<point x="405.0953369141" y="116.00390625" type="line"/>
			<point x="536.5845947266" y="81.00390625" type="line"/>
			<point x="536.5845947266" y="0" type="line"/>
		</contour>
	</outline>
	<anchor name="bottom" x="320" y="0"/>
	<anchor name="top" x="320" y="1000"/>
	<anchor name="ogonek" x="513" y="0"/>
	<anchor name="liga" x="639" y="0"/>
</glyph>
<glyph name="jdotless" format="2">
	<advance width="533"/>
	<outline>
		<contour>
			<point x="-112.2643432617" y="-480" type="qcurve"/>
			<point x="-112.2643432617" y="-368.2763671875" type="line"/>
			<point x="60.4429321289" y="-378.9978027344"/>
			<point x="196.1577148438" y="-227.0424194336"/>
			<point x="196.6376953125" y="-58.6887817383" type="qcurve" smooth="yes"/>
			<point x="196.6376953125" y="577" type="line"/>
			<point x="195.7177734375" y="850.8603515625" type="line"/>
			<point x="46.1484375" y="880.8603515625" type="line"/>
			<point x="46.1484375" y="968.3774414062" type="line"/>
			<point x="252.6455078125" y="1001.888671875" type="line"/>
			<point x="330.6455078125" y="1001.888671875" type="line"/>
			<point x="373.6455078125" y="957.888671875" type="line"/>
			<point x="366.6455078125" y="577" type="line"/>
			<point x="369.6455078125" y="-0.741027832" type="line" smooth="yes"/>
			<point x="370.6455078125" y="-224.6713867188"/>
			<point x="187.6564941406" y="-502.8269042969"/>
		</contour>
	</outline>
	<anchor name="bottom" x="278" y="-436"/>
	<anchor name="top" x="278" y="1000"/>
	<anchor name="_liga" x="0" y="0"/>
</glyph>
